<svg width="402" height="874" viewBox="0 0 402 874" fill="none" xmlns="http://www.w3.org/2000/svg">
<g opacity="0.05">
<rect x="0.5" y="-12.5" width="79.4" height="59" stroke="#6662FF"/>
<rect x="80.8999" y="-12.5" width="79.4" height="59" stroke="#6662FF"/>
<rect x="161.3" y="-12.5" width="79.4" height="59" stroke="#6662FF"/>
<rect x="241.7" y="-12.5" width="79.4" height="59" stroke="#6662FF"/>
<rect x="322.1" y="-12.5" width="79.4" height="59" stroke="#6662FF"/>
<rect x="0.5" y="47.5" width="79.4" height="59" stroke="#6662FF"/>
<rect x="80.8999" y="47.5" width="79.4" height="59" stroke="#6662FF"/>
<rect x="161.3" y="47.5" width="79.4" height="59" stroke="#6662FF"/>
<rect x="241.7" y="47.5" width="79.4" height="59" stroke="#6662FF"/>
<rect x="322.1" y="47.5" width="79.4" height="59" stroke="#6662FF"/>
<rect x="0.5" y="107.5" width="79.4" height="59" stroke="#6662FF"/>
<rect x="80.8999" y="107.5" width="79.4" height="59" stroke="#6662FF"/>
<rect x="161.3" y="107.5" width="79.4" height="59" stroke="#6662FF"/>
<rect x="241.7" y="107.5" width="79.4" height="59" stroke="#6662FF"/>
<rect x="322.1" y="107.5" width="79.4" height="59" stroke="#6662FF"/>
<rect x="0.5" y="167.5" width="79.4" height="59" stroke="#6662FF"/>
<rect x="80.8999" y="167.5" width="79.4" height="59" stroke="#6662FF"/>
<rect x="161.3" y="167.5" width="79.4" height="59" stroke="#6662FF"/>
<rect x="241.7" y="167.5" width="79.4" height="59" stroke="#6662FF"/>
<rect x="322.1" y="167.5" width="79.4" height="59" stroke="#6662FF"/>
<rect x="0.5" y="227.5" width="79.4" height="59" stroke="#6662FF"/>
<rect x="80.8999" y="227.5" width="79.4" height="59" stroke="#6662FF"/>
<rect x="161.3" y="227.5" width="79.4" height="59" stroke="#6662FF"/>
<rect x="241.7" y="227.5" width="79.4" height="59" stroke="#6662FF"/>
<rect x="322.1" y="227.5" width="79.4" height="59" stroke="#6662FF"/>
<rect x="0.5" y="287.5" width="79.4" height="59" stroke="#6662FF"/>
<rect x="80.8999" y="287.5" width="79.4" height="59" stroke="#6662FF"/>
<rect x="161.3" y="287.5" width="79.4" height="59" stroke="#6662FF"/>
<rect x="241.7" y="287.5" width="79.4" height="59" stroke="#6662FF"/>
<rect x="322.1" y="287.5" width="79.4" height="59" stroke="#6662FF"/>
<rect x="0.5" y="347.5" width="79.4" height="59" stroke="#6662FF"/>
<rect x="80.8999" y="347.5" width="79.4" height="59" stroke="#6662FF"/>
<rect x="161.3" y="347.5" width="79.4" height="59" stroke="#6662FF"/>
<rect x="241.7" y="347.5" width="79.4" height="59" stroke="#6662FF"/>
<rect x="322.1" y="347.5" width="79.4" height="59" stroke="#6662FF"/>
<rect x="0.5" y="407.5" width="79.4" height="59" stroke="#6662FF"/>
<rect x="80.8999" y="407.5" width="79.4" height="59" stroke="#6662FF"/>
<rect x="161.3" y="407.5" width="79.4" height="59" stroke="#6662FF"/>
<rect x="241.7" y="407.5" width="79.4" height="59" stroke="#6662FF"/>
<rect x="322.1" y="407.5" width="79.4" height="59" stroke="#6662FF"/>
<rect x="0.5" y="467.5" width="79.4" height="59" stroke="#6662FF"/>
<rect x="80.8999" y="467.5" width="79.4" height="59" stroke="#6662FF"/>
<rect x="161.3" y="467.5" width="79.4" height="59" stroke="#6662FF"/>
<rect x="241.7" y="467.5" width="79.4" height="59" stroke="#6662FF"/>
<rect x="322.1" y="467.5" width="79.4" height="59" stroke="#6662FF"/>
<rect x="0.5" y="527.5" width="79.4" height="59" stroke="#6662FF"/>
<rect x="80.8999" y="527.5" width="79.4" height="59" stroke="#6662FF"/>
<rect x="161.3" y="527.5" width="79.4" height="59" stroke="#6662FF"/>
<rect x="241.7" y="527.5" width="79.4" height="59" stroke="#6662FF"/>
<rect x="322.1" y="527.5" width="79.4" height="59" stroke="#6662FF"/>
<rect x="0.5" y="587.5" width="79.4" height="59" stroke="#6662FF"/>
<rect x="80.8999" y="587.5" width="79.4" height="59" stroke="#6662FF"/>
<rect x="161.3" y="587.5" width="79.4" height="59" stroke="#6662FF"/>
<rect x="241.7" y="587.5" width="79.4" height="59" stroke="#6662FF"/>
<rect x="322.1" y="587.5" width="79.4" height="59" stroke="#6662FF"/>
<rect x="0.5" y="647.5" width="79.4" height="59" stroke="#6662FF"/>
<rect x="80.8999" y="647.5" width="79.4" height="59" stroke="#6662FF"/>
<rect x="161.3" y="647.5" width="79.4" height="59" stroke="#6662FF"/>
<rect x="241.7" y="647.5" width="79.4" height="59" stroke="#6662FF"/>
<rect x="322.1" y="647.5" width="79.4" height="59" stroke="#6662FF"/>
<rect x="0.5" y="707.5" width="79.4" height="59" stroke="#6662FF"/>
<rect x="80.8999" y="707.5" width="79.4" height="59" stroke="#6662FF"/>
<rect x="161.3" y="707.5" width="79.4" height="59" stroke="#6662FF"/>
<rect x="241.7" y="707.5" width="79.4" height="59" stroke="#6662FF"/>
<rect x="322.1" y="707.5" width="79.4" height="59" stroke="#6662FF"/>
<rect x="0.5" y="767.5" width="79.4" height="59" stroke="#6662FF"/>
<rect x="80.8999" y="767.5" width="79.4" height="59" stroke="#6662FF"/>
<rect x="161.3" y="767.5" width="79.4" height="59" stroke="#6662FF"/>
<rect x="241.7" y="767.5" width="79.4" height="59" stroke="#6662FF"/>
<rect x="322.1" y="767.5" width="79.4" height="59" stroke="#6662FF"/>
<rect x="0.5" y="827.5" width="79.4" height="59" stroke="#6662FF"/>
<rect x="80.8999" y="827.5" width="79.4" height="59" stroke="#6662FF"/>
<rect x="161.3" y="827.5" width="79.4" height="59" stroke="#6662FF"/>
<rect x="241.7" y="827.5" width="79.4" height="59" stroke="#6662FF"/>
<rect x="322.1" y="827.5" width="79.4" height="59" stroke="#6662FF"/>
</g>
</svg>
