<svg width="24" height="24" viewBox="0 0 24 24" fill="none" xmlns="http://www.w3.org/2000/svg">
<g clip-path="url(#clip0_16_161)">
<path d="M24 12C24 5.37258 18.6274 0 12 0C5.37258 0 0 5.37258 0 12C0 18.6274 5.37258 24 12 24C18.6274 24 24 18.6274 24 12Z" fill="#0DC143"/>
<path d="M17.3752 6.60575C16.0887 5.2814 14.3104 4.5625 12.4941 4.5625C8.63469 4.5625 5.53199 7.70305 5.56984 11.5246C5.56984 12.7354 5.91039 13.9085 6.47794 14.9679L5.49414 18.5625L9.16444 17.6166C10.186 18.1841 11.3212 18.449 12.4563 18.449C16.2779 18.449 19.3806 15.3085 19.3806 11.4868C19.3806 9.63275 18.6617 7.89225 17.3752 6.60575ZM12.4941 17.276C11.4725 17.276 10.4509 17.0111 9.58064 16.4814L9.35359 16.3679L7.15904 16.9354L7.72659 14.7787L7.57524 14.5517C5.91039 11.8652 6.70494 8.30845 9.42929 6.6436C12.1536 4.97871 15.6725 5.7733 17.3374 8.49765C19.0022 11.222 18.2077 14.7409 15.4833 16.4058C14.6131 16.9733 13.5536 17.276 12.4941 17.276ZM15.8239 13.076L15.4077 12.8868C15.4077 12.8868 14.8022 12.622 14.4239 12.4327C14.386 12.4327 14.3482 12.3949 14.3104 12.3949C14.1968 12.3949 14.1212 12.4328 14.0455 12.4706C14.0455 12.4706 14.0077 12.5084 13.4779 13.1138C13.4401 13.1895 13.3644 13.2274 13.2887 13.2274H13.2509C13.2131 13.2274 13.1374 13.1896 13.0995 13.1517L12.9104 13.076C12.4941 12.8868 12.1158 12.6598 11.8131 12.3571C11.7374 12.2814 11.6239 12.2057 11.5482 12.13C11.2833 11.8652 11.0185 11.5625 10.8293 11.2219L10.7914 11.1463C10.7536 11.1085 10.7536 11.0706 10.7158 10.995C10.7158 10.9193 10.7158 10.8436 10.7536 10.8057C10.7536 10.8057 10.9049 10.6165 11.0185 10.503C11.0941 10.4274 11.132 10.3139 11.2077 10.2382C11.2833 10.1247 11.3212 9.9733 11.2833 9.8598C11.2455 9.6706 10.7914 8.649 10.6779 8.42195C10.6022 8.30845 10.5266 8.2706 10.4131 8.23275H10.2995C10.2239 8.23275 10.1104 8.23275 9.99684 8.23275C9.92119 8.23275 9.84549 8.2706 9.76984 8.2706L9.73199 8.30845C9.65629 8.3463 9.58064 8.42195 9.50494 8.4598C9.42929 8.53545 9.39144 8.61115 9.31579 8.6868C9.05089 9.02735 8.89954 9.4436 8.89954 9.8598C8.89954 10.1625 8.97524 10.4652 9.08874 10.7301L9.12659 10.8436C9.46714 11.5625 9.92119 12.2057 10.5266 12.7733L10.6779 12.9247C10.7914 13.0382 10.9049 13.1139 10.9806 13.2274C11.7752 13.9085 12.6833 14.4004 13.7049 14.6652C13.8185 14.7031 13.9698 14.703 14.0833 14.7409C14.1968 14.7409 14.3482 14.7409 14.4617 14.7409C14.6509 14.7409 14.8779 14.6652 15.0293 14.5896C15.1428 14.5139 15.2185 14.5139 15.2941 14.4382L15.3698 14.3625C15.4455 14.2868 15.5212 14.249 15.5968 14.1733C15.6725 14.0976 15.7482 14.0219 15.786 13.9463C15.8617 13.7949 15.8995 13.6058 15.9374 13.4165C15.9374 13.3409 15.9374 13.2274 15.9374 13.1517C15.9374 13.1517 15.8995 13.1139 15.8239 13.076Z" fill="white"/>
</g>
<defs>
<clipPath id="clip0_16_161">
<rect width="24" height="24" fill="white"/>
</clipPath>
</defs>
</svg>
